# xmcd
#
# Track frame offsets:
#	150
#	17593
#	40216
#	60652
#	81638
#	105348
#	133174
#	159466
#	175601
#	195420
#	221485
#	250518
#
# Disc length: 3571 seconds
#
# Revision: 1
# Processed by: cddbd v1.5.2PL0 Copyright (c) Steve Scherf et al.
# Submitted via: audiograbber 1.83.01
#
DISCID=960df10c
DTITLE=Lucinda Williams - Blessed - CD1
DYEAR=2011
DGENRE=Country
TTITLE0=Buttercup
TTITLE1=I Don't Know How You're Livin'
TTITLE2=Copenhagen
TTITLE3=Born to Be Loved
TTITLE4=Seeing Black
TTITLE5=Soldier's Song
TTITLE6=Blessed
TTITLE7=Sweet Love
TTITLE8=Ugly Truth
TTITLE9=Convince Me
TTITLE10=Awakening
TTITLE11=Kiss Like Your Kiss
EXTD=
EXTT0=
EXTT1=
EXTT2=
EXTT3=
EXTT4=
EXTT5=
EXTT6=
EXTT7=
EXTT8=
EXTT9=
EXTT10=
EXTT11=
PLAYORDER=
